<?xml version="1.0" encoding="utf-8"?>
<!-- Generator: Adobe Illustrator 16.0.0, SVG Export Plug-In . SVG Version: 6.00 Build 0)  -->
<!DOCTYPE svg PUBLIC "-//W3C//DTD SVG 1.1//EN" "http://www.w3.org/Graphics/SVG/1.1/DTD/svg11.dtd">
<svg version="1.1" id="레이어_1" xmlns="http://www.w3.org/2000/svg" xmlns:xlink="http://www.w3.org/1999/xlink" x="0px"
	 y="0px" width="36px" height="30px" viewBox="0 0 36 30" enable-background="new 0 0 36 30" xml:space="preserve">
<path fill="#FFD400" d="M32.998,25.5V30h-30v-4.5H32.998z M32.998,3c-2.25,0-3.992,2.527-2.396,4.79
	c0.803,1.14,0.61,1.825,0.067,2.625c-1.146,1.69-2.806,3.085-5.17,3.085c-3.781,0-5.78-3.125-6.197-5.771
	c-0.143-0.92-0.226-1.61,0.653-2.466C20.561,4.678,21,3.907,21,3c0-1.656-1.346-3-3-3c-1.656,0-3.002,1.344-3.002,3
	c0,0.906,0.439,1.678,1.044,2.262c0.879,0.855,0.797,1.546,0.653,2.466c-0.416,2.646-2.413,5.771-6.197,5.771
	c-2.361,0-4.02-1.395-5.17-3.088C4.785,9.615,4.592,8.93,5.396,7.79C6.991,5.527,5.249,3,2.999,3C1.345,3,0,4.344,0,6
	c0,1.195,0.694,2.242,1.716,2.713C2.953,9.281,3,10.688,3,11.968V22.5h29.999V11.968c0-1.28,0.049-2.687,1.283-3.255
	C35.303,8.242,36,7.195,36,6C36,4.344,34.656,3,32.998,3z"/>
</svg>
