<?xml version="1.0" encoding="utf-8"?>
<!-- Generator: Adobe Illustrator 16.0.0, SVG Export Plug-In . SVG Version: 6.00 Build 0)  -->
<!DOCTYPE svg PUBLIC "-//W3C//DTD SVG 1.1//EN" "http://www.w3.org/Graphics/SVG/1.1/DTD/svg11.dtd" [
	<!ENTITY ns_flows "http://ns.adobe.com/Flows/1.0/">
	<!ENTITY ns_extend "http://ns.adobe.com/Extensibility/1.0/">
	<!ENTITY ns_ai "http://ns.adobe.com/AdobeIllustrator/10.0/">
	<!ENTITY ns_graphs "http://ns.adobe.com/Graphs/1.0/">
]>
<svg version="1.1" id="레이어_1" xmlns:x="&ns_extend;" xmlns:i="&ns_ai;" xmlns:graph="&ns_graphs;"
	 xmlns="http://www.w3.org/2000/svg" xmlns:xlink="http://www.w3.org/1999/xlink" xmlns:a="http://ns.adobe.com/AdobeSVGViewerExtensions/3.0/"
	 x="0px" y="0px" width="50px" height="50px" viewBox="0 0 50 50" style="enable-background:new 0 0 50 50;" xml:space="preserve">
<g>
	<g>
		
			<rect x="11.837" y="24.021" transform="matrix(0.7071 0.7071 -0.7071 0.7071 25.0009 -10.3553)" style="fill:#FFFFFF;" width="26.327" height="1.958"/>
	</g>
	<g>
		<path style="fill:#FFFFFF;" d="M26.674,27.132c-0.496,0.387-1.079,0.592-1.684,0.592c-0.558,0-1.113-0.177-1.565-0.498
			c-0.478-0.338-0.827-0.824-1.013-1.404c-0.077-0.239-0.117-0.563-0.121-0.96c-0.012-1.29-0.013-2.591-0.013-3.884l-1.889-1.889
			c-0.004,1.93-0.011,3.86,0.007,5.79c0.005,0.509,0.057,1.04,0.211,1.521c0.65,2.034,2.479,3.22,4.383,3.22
			c0.98,0,1.98-0.315,2.848-0.992c0.404-0.315,0.751-0.669,1.027-1.063l-1.387-1.386C27.313,26.519,27.053,26.837,26.674,27.132z"/>
		<path style="fill:#FFFFFF;" d="M22.281,17.733c0.002-1.259,0.507-2.047,1.687-2.634c0.063-0.03,0.259-0.076,0.401-0.11
			c0.117-0.027,0.246-0.058,0.381-0.095h0.529c0.091,0.019,0.185,0.038,0.285,0.056c1.142,0.208,2.119,1.321,2.133,2.432
			c0.029,2.198,0.034,4.26,0.015,6.26l1.862,1.863c0.003-0.046,0.01-0.089,0.011-0.135c0.044-2.67,0.042-5.342,0.008-8.013
			c-0.027-2.045-1.673-3.903-3.688-4.271c-0.146-0.026-0.29-0.057-0.434-0.086c-0.313,0-0.625,0-0.938,0
			c-0.075,0.017-0.152,0.03-0.226,0.051c-0.396,0.113-0.819,0.17-1.183,0.351c-1.381,0.687-2.258,1.705-2.586,3.066l1.742,1.742
			C22.281,18.052,22.281,17.893,22.281,17.733z"/>
		<path style="fill:#FFFFFF;" d="M27.398,30.983c-2.537,1-4.898,0.535-6.904-1.369c-1.18-1.119-1.848-2.503-1.932-4.139
			c-0.037-0.74-0.023-1.483-0.031-2.225c-0.006-0.599-0.387-1.019-0.926-1.017c-0.527,0.002-0.91,0.419-0.914,1.003
			c-0.002,0.578,0.002,1.156,0,1.734c-0.004,1.049,0.139,2.079,0.551,3.043c1.121,2.623,3.025,4.367,5.83,5.056
			c0.324,0.079,0.654,0.128,0.979,0.19c0,0.635,0,1.255,0,1.897c-0.109,0-0.201,0-0.293,0c-1.125,0-2.25-0.004-3.375,0.004
			c-0.461,0.003-0.838,0.332-0.912,0.756c-0.072,0.425,0.158,0.833,0.578,1.02c0.041,0.018,0.08,0.041,0.119,0.062
			c3.219,0,6.436,0,9.656,0c0.059-0.032,0.121-0.062,0.18-0.094c0.311-0.167,0.504-0.418,0.521-0.777
			c0.029-0.548-0.381-0.965-0.967-0.969c-1.115-0.007-2.232-0.002-3.35-0.002c-0.09,0-0.18,0-0.271,0c0-0.659,0-1.28,0-1.905
			c0.107-0.019,0.199-0.037,0.291-0.05c0.699-0.098,1.375-0.282,2.025-0.556c1.293-0.544,2.346-1.399,3.22-2.474l-1.278-1.278
			C29.518,29.81,28.58,30.517,27.398,30.983z"/>
		<path style="fill:#FFFFFF;" d="M33.182,26.462c0.189-1.131,0.115-2.274,0.105-3.413c-0.004-0.417-0.412-0.783-0.834-0.812
			c-0.545-0.038-0.977,0.375-0.994,0.944c-0.025,0.936,0.035,1.885-0.1,2.805c-0.054,0.372-0.142,0.722-0.244,1.06l1.432,1.432
			C32.844,27.842,33.062,27.172,33.182,26.462z"/>
	</g>
</g>
</svg>
