<?xml version="1.0" encoding="utf-8"?>
<!-- Generator: Adobe Illustrator 16.0.0, SVG Export Plug-In . SVG Version: 6.00 Build 0)  -->
<!DOCTYPE svg PUBLIC "-//W3C//DTD SVG 1.1//EN" "http://www.w3.org/Graphics/SVG/1.1/DTD/svg11.dtd">
<svg version="1.1" id="레이어_1" xmlns="http://www.w3.org/2000/svg" xmlns:xlink="http://www.w3.org/1999/xlink" x="0px"
	 y="0px" width="50px" height="50px" viewBox="0 0 50 50" enable-background="new 0 0 50 50" xml:space="preserve">
<g>
	<path fill="#FFFFFF" d="M31.028,22.978v-4.44c0-1.041-0.836-1.885-1.868-1.885h-9.081l1.869,1.859h7.204
		c0.004,0.005,0.008,0.012,0.008,0.025v7.149l1.868,1.859v-1.572L35,29.99V19.09L31.028,22.978z"/>
	<path fill="#FFFFFF" d="M15,16.814l0.867,0.862c-0.133,0.259-0.207,0.551-0.207,0.861v11.727c0,1.041,0.837,1.885,1.869,1.885
		h11.63c0.357,0,0.69-0.103,0.975-0.277l2.642,2.628l1.322-1.314L16.322,15.5L15,16.814z M17.538,30.289
		c-0.004-0.004-0.008-0.012-0.008-0.024V19.332l11.014,10.957H17.538z"/>
</g>
</svg>
