<?xml version="1.0" encoding="utf-8"?>
<!-- Generator: Adobe Illustrator 16.0.0, SVG Export Plug-In . SVG Version: 6.00 Build 0)  -->
<!DOCTYPE svg PUBLIC "-//W3C//DTD SVG 1.1//EN" "http://www.w3.org/Graphics/SVG/1.1/DTD/svg11.dtd" [
	<!ENTITY ns_flows "http://ns.adobe.com/Flows/1.0/">
	<!ENTITY ns_extend "http://ns.adobe.com/Extensibility/1.0/">
	<!ENTITY ns_ai "http://ns.adobe.com/AdobeIllustrator/10.0/">
	<!ENTITY ns_graphs "http://ns.adobe.com/Graphs/1.0/">
]>
<svg version="1.1" id="레이어_1" xmlns:x="&ns_extend;" xmlns:i="&ns_ai;" xmlns:graph="&ns_graphs;"
	 xmlns="http://www.w3.org/2000/svg" xmlns:xlink="http://www.w3.org/1999/xlink" xmlns:a="http://ns.adobe.com/AdobeSVGViewerExtensions/3.0/"
	 x="0px" y="0px" width="50px" height="50px" viewBox="0 0 50 50" style="enable-background:new 0 0 50 50;" xml:space="preserve">
<path style="fill-rule:evenodd;clip-rule:evenodd;fill:#EA4335;" d="M27.946,23.957c-1.972-0.649-3.932-0.637-5.912,0
	c-0.083,0.598-0.2,1.206-0.246,1.819c-0.048,0.636-0.289,1.103-0.89,1.363c-0.179,0.078-0.354,0.18-0.509,0.299
	c-0.47,0.358-0.947,0.712-1.39,1.103c-0.611,0.537-1.25,0.543-1.822-0.028c-0.584-0.583-1.168-1.166-1.75-1.751
	c-0.574-0.575-0.565-1.266,0.013-1.828c1.801-1.751,3.919-2.931,6.362-3.518c1.453-0.349,2.924-0.455,4.415-0.319
	c2.234,0.203,4.305,0.889,6.171,2.127c0.774,0.514,1.509,1.103,2.195,1.73c0.563,0.514,0.539,1.224,0.041,1.77
	c-0.592,0.648-1.221,1.268-1.864,1.866c-0.481,0.448-1.151,0.521-1.659,0.049c-0.683-0.634-1.417-1.188-2.242-1.623
	c-0.388-0.205-0.572-0.546-0.621-0.989C28.161,25.337,28.045,24.654,27.946,23.957z"/>
</svg>
