<?xml version="1.0" encoding="utf-8"?>
<!-- Generator: Adobe Illustrator 16.0.0, SVG Export Plug-In . SVG Version: 6.00 Build 0)  -->
<!DOCTYPE svg PUBLIC "-//W3C//DTD SVG 1.1//EN" "http://www.w3.org/Graphics/SVG/1.1/DTD/svg11.dtd">
<svg version="1.1" id="레이어_1" xmlns="http://www.w3.org/2000/svg" xmlns:xlink="http://www.w3.org/1999/xlink" x="0px"
	 y="0px" width="50px" height="50px" viewBox="0 0 50 50" enable-background="new 0 0 50 50" xml:space="preserve">
<g>
	<g>
		<path fill="#FFFFFF" d="M33,19.833v10.15h-8.833h-0.643l-0.522,0.375l-2.667,1.914v-0.289v-2h-2H17v-10.15H33 M33.777,17.833
			H16.223c-0.676,0-1.223,0.547-1.223,1.223v11.706c0,0.676,0.547,1.223,1.223,1.223h2.111l-0.001,4.184l5.834-4.184h9.61
			c0.676,0,1.223-0.547,1.223-1.223V19.055C35,18.378,34.454,17.833,33.777,17.833L33.777,17.833z"/>
	</g>
	<circle fill="#FFFFFF" cx="20.833" cy="24.916" r="1.25"/>
	<circle fill="#FFFFFF" cx="25" cy="24.916" r="1.25"/>
	<circle fill="#FFFFFF" cx="29.167" cy="24.916" r="1.25"/>
</g>
</svg>
