<?xml version="1.0" encoding="utf-8"?>
<!-- Generator: Adobe Illustrator 16.0.0, SVG Export Plug-In . SVG Version: 6.00 Build 0)  -->
<!DOCTYPE svg PUBLIC "-//W3C//DTD SVG 1.1//EN" "http://www.w3.org/Graphics/SVG/1.1/DTD/svg11.dtd" [
	<!ENTITY ns_flows "http://ns.adobe.com/Flows/1.0/">
	<!ENTITY ns_extend "http://ns.adobe.com/Extensibility/1.0/">
	<!ENTITY ns_ai "http://ns.adobe.com/AdobeIllustrator/10.0/">
	<!ENTITY ns_graphs "http://ns.adobe.com/Graphs/1.0/">
]>
<svg version="1.1" id="레이어_1" xmlns:x="&ns_extend;" xmlns:i="&ns_ai;" xmlns:graph="&ns_graphs;"
	 xmlns="http://www.w3.org/2000/svg" xmlns:xlink="http://www.w3.org/1999/xlink" xmlns:a="http://ns.adobe.com/AdobeSVGViewerExtensions/3.0/"
	 x="0px" y="0px" width="50px" height="50px" viewBox="0 0 50 50" style="enable-background:new 0 0 50 50;" xml:space="preserve">
<g>
	<path style="fill:#FFFFFF;" d="M25.272,14.895c0.091,0.019,0.186,0.038,0.286,0.056c1.142,0.208,2.119,1.321,2.133,2.432
		c0.037,2.824,0.035,5.426-0.007,7.956c-0.011,0.684-0.344,1.271-1.017,1.794c-0.497,0.387-1.079,0.592-1.685,0.592
		c-0.556,0-1.112-0.177-1.564-0.498c-0.478-0.338-0.828-0.824-1.013-1.404c-0.077-0.239-0.117-0.563-0.121-0.96
		c-0.018-1.956-0.014-3.948-0.011-5.876c0.001-0.417,0.001-0.834,0.002-1.252c0.002-1.259,0.506-2.047,1.685-2.634
		c0.063-0.03,0.259-0.076,0.403-0.11c0.116-0.027,0.244-0.058,0.38-0.095H25.272 M25.463,13c-0.313,0-0.625,0-0.938,0
		c-0.075,0.017-0.151,0.03-0.226,0.051c-0.396,0.113-0.82,0.17-1.183,0.351c-1.778,0.885-2.734,2.313-2.737,4.329
		c-0.003,2.382-0.013,4.764,0.009,7.146c0.004,0.509,0.057,1.04,0.21,1.521c0.651,2.034,2.48,3.22,4.382,3.22
		c0.98,0,1.981-0.315,2.85-0.992c1.052-0.82,1.723-1.905,1.746-3.257c0.044-2.67,0.042-5.342,0.007-8.013
		c-0.027-2.045-1.672-3.903-3.688-4.271C25.752,13.06,25.607,13.029,25.463,13L25.463,13z"/>
	<path style="fill-rule:evenodd;clip-rule:evenodd;fill:#FFFFFF;" d="M20.167,37c-0.04-0.021-0.078-0.044-0.118-0.062
		c-0.419-0.187-0.651-0.594-0.578-1.02c0.073-0.425,0.452-0.753,0.913-0.756c1.125-0.009,2.25-0.004,3.374-0.004
		c0.092,0,0.185,0,0.293,0c0-0.642,0-1.262,0-1.897c-0.325-0.063-0.655-0.111-0.978-0.19c-2.806-0.688-4.709-2.433-5.83-5.056
		c-0.412-0.964-0.556-1.995-0.551-3.043c0.002-0.578-0.002-1.156,0.001-1.734c0.003-0.583,0.386-1,0.913-1.003
		c0.539-0.002,0.919,0.418,0.925,1.017c0.008,0.742-0.006,1.484,0.032,2.225c0.084,1.636,0.752,3.02,1.931,4.139
		c2.005,1.904,4.368,2.368,6.904,1.369c2.226-0.877,3.613-2.587,3.962-4.997c0.134-0.92,0.074-1.869,0.1-2.805
		c0.016-0.568,0.448-0.981,0.994-0.944c0.421,0.029,0.829,0.395,0.833,0.812c0.011,1.139,0.084,2.282-0.106,3.413
		c-0.217,1.293-0.731,2.464-1.529,3.503c-0.906,1.178-2.018,2.101-3.398,2.682c-0.651,0.273-1.326,0.458-2.024,0.556
		c-0.092,0.013-0.184,0.031-0.291,0.05c0,0.625,0,1.247,0,1.905c0.091,0,0.181,0,0.271,0c1.117,0,2.233-0.004,3.35,0.002
		c0.585,0.003,0.996,0.42,0.966,0.969c-0.019,0.359-0.211,0.61-0.522,0.777c-0.06,0.033-0.121,0.063-0.181,0.094
		C26.604,37,23.385,37,20.167,37z"/>
</g>
</svg>
