<?xml version="1.0" encoding="utf-8"?>
<!-- Generator: Adobe Illustrator 16.0.0, SVG Export Plug-In . SVG Version: 6.00 Build 0)  -->
<!DOCTYPE svg PUBLIC "-//W3C//DTD SVG 1.1//EN" "http://www.w3.org/Graphics/SVG/1.1/DTD/svg11.dtd" [
	<!ENTITY ns_flows "http://ns.adobe.com/Flows/1.0/">
	<!ENTITY ns_extend "http://ns.adobe.com/Extensibility/1.0/">
	<!ENTITY ns_ai "http://ns.adobe.com/AdobeIllustrator/10.0/">
	<!ENTITY ns_graphs "http://ns.adobe.com/Graphs/1.0/">
]>
<svg version="1.1" id="레이어_1" xmlns:x="&ns_extend;" xmlns:i="&ns_ai;" xmlns:graph="&ns_graphs;"
	 xmlns="http://www.w3.org/2000/svg" xmlns:xlink="http://www.w3.org/1999/xlink" xmlns:a="http://ns.adobe.com/AdobeSVGViewerExtensions/3.0/"
	 x="0px" y="0px" width="24px" height="18px" viewBox="0 0 24 18" style="enable-background:new 0 0 24 18;" xml:space="preserve">
<g>
	<g>
		<path style="fill:#FFFFFF;" d="M21.192,18H2.808C1.26,18,0,16.754,0,15.222V2.778C0,1.246,1.26,0,2.808,0h18.384
			C22.74,0,24,1.246,24,2.778v12.443C24,16.754,22.74,18,21.192,18z M2.808,2C2.362,2,2,2.35,2,2.778v12.443
			C2,15.65,2.362,16,2.808,16h18.384C21.638,16,22,15.65,22,15.222V2.778C22,2.35,21.638,2,21.192,2H2.808z"/>
	</g>
	<g>
		<path style="fill:#FFFFFF;" d="M8.515,9.434c-0.639,0-0.823-0.397-0.409-0.883l3.14-3.686c0.414-0.486,1.092-0.486,1.506,0
			l3.142,3.686c0.414,0.485,0.23,0.883-0.408,0.883H8.515z"/>
		<path style="fill:#FFFFFF;" d="M13.759,12.339c0,0.638-0.523,1.162-1.162,1.162h-1.196c-0.639,0-1.162-0.524-1.162-1.162v-2.324
			c0-0.638,0.523-1.161,1.162-1.161h1.196c0.639,0,1.162,0.523,1.162,1.161V12.339z"/>
	</g>
</g>
</svg>
